<?xml version="1.0" encoding="UTF-8" standalone="no"?>
<svg width="237px" height="52px" viewBox="0 0 237 52" version="1.1" xmlns="http://www.w3.org/2000/svg" xmlns:xlink="http://www.w3.org/1999/xlink">
    <!-- Generator: Sketch 3.6.1 (26313) - http://www.bohemiancoding.com/sketch -->
    <title>CESIS NEW LOGO</title>
    <desc>Created with Sketch.</desc>
    <defs></defs>
    <g id="Page-1" stroke="none" stroke-width="1" fill="none" fill-rule="evenodd">
        <g id="Desktop-HD" transform="translate(-307.000000, -529.000000)">
            <g id="CESIS-NEW-LOGO" transform="translate(307.000000, 529.000000)">
                <path d="M25.6576491,0.68 C11.5276491,0.68 0.367649078,9.95 0.367649078,26.51 C0.367649078,42.35 10.8076491,51.26 24.5776491,51.26 C37.6276491,51.26 47.2576491,44.78 49.0576491,32.36 L33.1276491,32.36 C32.2276491,37.58 29.1676491,40.28 25.4776491,40.28 C19.9876491,40.28 16.9276491,35.78 16.9276491,25.52 C16.9276491,16.25 19.8976491,11.66 25.2976491,11.66 C29.3476491,11.66 32.4976491,14 33.2176491,20.3 L48.8776491,20.3 C48.4276491,9.5 39.7876491,0.68 25.6576491,0.68 L25.6576491,0.68 Z M100.761766,25.34 C100.761766,12.92 92.6617661,0.68 76.6417661,0.68 C60.6217661,0.68 50.9917661,12.11 50.9917661,26.15 C50.9917661,43.07 61.9717661,51.26 75.7417661,51.26 C88.0717661,51.26 97.0717661,45.14 99.8617661,34.25 L83.9317661,34.25 C83.3017661,37.94 80.5117661,40.28 75.9217661,40.28 C71.3317661,40.28 67.8217661,38.03 67.0117661,30.02 L100.491766,30.02 C100.671766,28.4 100.761766,26.78 100.761766,25.34 L100.761766,25.34 Z M75.8317661,11.66 C80.1517661,11.66 82.9417661,14.45 83.8417661,20.12 L67.5517661,20.12 C68.6317661,14.18 71.6017661,11.66 75.8317661,11.66 L75.8317661,11.66 Z M125.375883,0.68 C112.595883,0.68 104.315883,6.62 104.315883,16.16 C104.315883,24.35 109.805883,28.58 118.985883,30.74 C127.535883,32.72 130.595883,34.43 130.595883,37.49 C130.595883,40.01 128.345883,41.18 125.465883,41.18 C122.045883,41.18 119.165883,38.75 118.265883,35.06 L102.335883,35.06 C103.595883,45.86 112.505883,51.26 125.555883,51.26 C137.165883,51.26 146.795883,46.49 146.795883,36.23 C146.795883,26.96 140.585883,23.18 131.855883,21.02 C122.675883,18.77 120.515883,16.97 120.515883,14.27 C120.515883,12.2 122.135883,10.76 124.385883,10.76 C127.265883,10.76 128.885883,12.65 129.605883,15.98 L145.535883,15.98 C144.275883,7.25 137.345883,0.68 125.375883,0.68 L125.375883,0.68 Z M167.09,50 L167.09,1.94 L150.89,1.94 L150.89,50 L167.09,50 Z M194.404117,0.68 C181.624117,0.68 173.344117,6.62 173.344117,16.16 C173.344117,24.35 178.834117,28.58 188.014117,30.74 C196.564117,32.72 199.624117,34.43 199.624117,37.49 C199.624117,40.01 197.374117,41.18 194.494117,41.18 C191.074117,41.18 188.194117,38.75 187.294117,35.06 L171.364117,35.06 C172.624117,45.86 181.534117,51.26 194.584117,51.26 C206.194117,51.26 215.824117,46.49 215.824117,36.23 C215.824117,26.96 209.614117,23.18 200.884117,21.02 C191.704117,18.77 189.544117,16.97 189.544117,14.27 C189.544117,12.2 191.164117,10.76 193.414117,10.76 C196.294117,10.76 197.914117,12.65 198.634117,15.98 L214.564117,15.98 C213.304117,7.25 206.374117,0.68 194.404117,0.68 L194.404117,0.68 Z" id="cesis.-copy" fill="#565656"></path>
                <path d="M227.658234,33.26 C222.348234,33.26 218.658234,36.95 218.658234,42.26 C218.658234,47.57 222.348234,51.26 227.658234,51.26 C232.968234,51.26 236.658234,47.57 236.658234,42.26 C236.658234,36.95 232.968234,33.26 227.658234,33.26 L227.658234,33.26 Z" id="Path" fill="#69D2E7"></path>
            </g>
        </g>
    </g>
</svg>